<svg width="801" height="284" viewBox="0 0 801 284" fill="none" xmlns="http://www.w3.org/2000/svg">
<g clip-path="url(#paint0_diamond_11_149_clip_path)" data-figma-skip-parse="true"><g transform="matrix(-0.363895 -0.020625 -0.020625 0.363895 354.194 147.076)"><rect x="0" y="0" width="1283.44" height="1123.93" fill="url(#paint0_diamond_11_149)" opacity="1" shape-rendering="crispEdges"/><rect x="0" y="0" width="1283.44" height="1123.93" transform="scale(1 -1)" fill="url(#paint0_diamond_11_149)" opacity="1" shape-rendering="crispEdges"/><rect x="0" y="0" width="1283.44" height="1123.93" transform="scale(-1 1)" fill="url(#paint0_diamond_11_149)" opacity="1" shape-rendering="crispEdges"/><rect x="0" y="0" width="1283.44" height="1123.93" transform="scale(-1)" fill="url(#paint0_diamond_11_149)" opacity="1" shape-rendering="crispEdges"/></g></g><path d="M0.0424549 209.817C-3.90879 67.2289 268.77 -38.8105 454.043 13.6249C882.81 117.205 824.674 210.965 742.011 244.897C742.011 244.897 3.99363 352.404 0.0424549 209.817Z" data-figma-gradient-fill="{&#34;type&#34;:&#34;GRADIENT_DIAMOND&#34;,&#34;stops&#34;:[{&#34;color&#34;:{&#34;r&#34;:0.12941177189350128,&#34;g&#34;:0.58823531866073608,&#34;b&#34;:0.95294117927551270,&#34;a&#34;:1.0},&#34;position&#34;:0.0},{&#34;color&#34;:{&#34;r&#34;:0.37647059559822083,&#34;g&#34;:0.70980393886566162,&#34;b&#34;:1.0,&#34;a&#34;:1.0},&#34;position&#34;:1.0}],&#34;stopsVar&#34;:[{&#34;color&#34;:{&#34;r&#34;:0.12941177189350128,&#34;g&#34;:0.58823531866073608,&#34;b&#34;:0.95294117927551270,&#34;a&#34;:1.0},&#34;position&#34;:0.0},{&#34;color&#34;:{&#34;r&#34;:0.37647059559822083,&#34;g&#34;:0.70980393886566162,&#34;b&#34;:1.0,&#34;a&#34;:1.0},&#34;position&#34;:1.0}],&#34;transform&#34;:{&#34;m00&#34;:-727.79016113281250,&#34;m01&#34;:-41.249919891357422,&#34;m02&#34;:738.714355468750,&#34;m10&#34;:-41.249931335449219,&#34;m11&#34;:727.79016113281250,&#34;m12&#34;:-196.19387817382812},&#34;opacity&#34;:1.0,&#34;blendMode&#34;:&#34;NORMAL&#34;,&#34;visible&#34;:true}"/>
<defs>
<clipPath id="paint0_diamond_11_149_clip_path"><path d="M0.0424549 209.817C-3.90879 67.2289 268.77 -38.8105 454.043 13.6249C882.81 117.205 824.674 210.965 742.011 244.897C742.011 244.897 3.99363 352.404 0.0424549 209.817Z"/></clipPath><linearGradient id="paint0_diamond_11_149" x1="0" y1="0" x2="500" y2="500" gradientUnits="userSpaceOnUse">
<stop stop-color="#2196F3"/>
<stop offset="1" stop-color="#60B5FF"/>
</linearGradient>
</defs>
</svg>
